<svg xmlns="http://www.w3.org/2000/svg" width="50" height="50" viewBox="0 0 50 50"><path fill-rule="evenodd" clip-rule="evenodd" d="M10.181 1.906h31.318l.213 43.271-31.418.135-.113-8.977h1.687c1.264 0 2.267-1.006 2.267-2.27s-1.003-2.318-2.267-2.318h-1.687v-5.166h1.687c1.264 0 2.267-1.004 2.267-2.27s-1.003-2.322-2.267-2.322h-1.687v-5.164h1.687c1.264 0 2.267-1.004 2.267-2.271 0-1.262-1.003-2.316-2.267-2.316h-1.687v-10.332zm33.121 2.951v42.285h-31.595v.951h32.542v-43.236h-.947zm-24.529 16.61v7.064h16.925v-7.064h-16.925zm1.266.896v5.271h14.448v-5.271h-14.448zm-12.486-9.263c-1 0-1.802.67-1.802 1.459 0 .793.802 1.424 1.802 1.424h3.655c1 0 1.853-.631 1.853-1.424 0-.789-.853-1.459-1.853-1.459h-3.655zm.033 9.804c-1.018 0-1.835.621-1.835 1.398 0 .777.817 1.438 1.835 1.438h3.723c1.021 0 1.889-.66 1.889-1.438 0-.777-.867-1.398-1.889-1.398h-3.723zm.046 9.686c-1.045 0-1.881.654-1.881 1.465 0 .816.836 1.471 1.881 1.471h3.813c1.046 0 1.936-.654 1.936-1.471 0-.811-.89-1.465-1.936-1.465h-3.813z"/></svg>