<svg xmlns="http://www.w3.org/2000/svg" width="100" height="100" viewBox="0 0 100 100"><g><path d="M75.831 81.262c-.461 4.555-4.121 7.827-8.179 7.309l-34.53-4.418c-4.055-.521-6.968-4.632-6.507-9.187l6.035-59.515c.464-4.555 4.123-7.826 8.182-7.307l34.529 4.417c4.057.52 6.969 4.632 6.506 9.187l-6.036 59.514zM28.725 87.08c-4.055-.519-6.969-4.632-6.508-9.187l6.036-59.514c.108-1.073.401-2.072.829-2.969h-3.607c-4.083 0-7.391 3.716-7.391 8.301v59.896c0 4.586 3.308 8.302 7.391 8.302h34.754c.866 0 1.693-.177 2.467-.484l-33.971-4.345z"/></g></svg>