<svg xmlns="http://www.w3.org/2000/svg" xmlns:xlink="http://www.w3.org/1999/xlink" version="1.1" id="Layer_1" x="0px" y="0px" width="50px" height="50px" viewBox="0 0 50 50" enable-background="new 0 0 50 50" xml:space="preserve">
<g>
	<path fill-rule="evenodd" clip-rule="evenodd" fill="#000000" d="M10.181,1.906h31.318l0.213,43.271l-31.418,0.135l-0.113-8.977   h1.687c1.264,0,2.267-1.006,2.267-2.27l0,0c0-1.264-1.003-2.318-2.267-2.318h-1.687v-5.166h1.687c1.264,0,2.267-1.004,2.267-2.27   l0,0c0-1.266-1.003-2.322-2.267-2.322h-1.687v-5.164h1.687c1.264,0,2.267-1.004,2.267-2.271l0,0c0-1.262-1.003-2.316-2.267-2.316   h-1.687V1.906L10.181,1.906z M43.302,4.857v42.285H11.707v0.951h32.542V4.857H43.302z M18.773,21.467v7.064h16.925v-7.064H18.773   L18.773,21.467z M20.039,22.363v5.271h14.448v-5.271H20.039L20.039,22.363z M7.553,13.1c-1,0-1.802,0.67-1.802,1.459l0,0   c0,0.793,0.802,1.424,1.802,1.424h3.655c1,0,1.853-0.631,1.853-1.424l0,0c0-0.789-0.853-1.459-1.853-1.459H7.553L7.553,13.1z    M7.586,22.904c-1.018,0-1.835,0.621-1.835,1.398l0,0c0,0.777,0.817,1.438,1.835,1.438h3.723c1.021,0,1.889-0.66,1.889-1.438l0,0   c0-0.777-0.867-1.398-1.889-1.398H7.586L7.586,22.904z M7.632,32.59c-1.045,0-1.881,0.654-1.881,1.465l0,0   c0,0.816,0.836,1.471,1.881,1.471h3.813c1.046,0,1.936-0.654,1.936-1.471l0,0c0-0.811-0.89-1.465-1.936-1.465H7.632z"/>
</g>
</svg>