<svg width="100" height="100" viewBox="0 0 100 100" xmlns="http://www.w3.org/2000/svg"><title>design2@2x</title><g fill="#AE2221"><path d="M33.312 50c-9.203 0-16.662 7.459-16.662 16.662 0 12.342-6.701 23.096-16.65 28.858 4.944 2.869 10.607 4.48 16.662 4.48 18.408 0 33.338-14.93 33.338-33.338-.012-9.203-7.482-16.662-16.688-16.662zm0 0M96.338 3.662c-4.883-4.883-12.793-4.883-17.676 0l-35.633 35.62c8.252 2.942 14.746 9.437 17.676 17.688l35.633-35.633c4.883-4.882 4.883-12.792 0-17.675zm0 0"/></g></svg>