<?xml version="1.0" encoding="UTF-8" standalone="no"?>
<svg width="100px" height="100px" viewBox="0 0 100 100" version="1.1" xmlns="http://www.w3.org/2000/svg" xmlns:xlink="http://www.w3.org/1999/xlink" xmlns:sketch="http://www.bohemiancoding.com/sketch/ns">
    <title>design@2x</title>
    <description>Created with Sketch (http://www.bohemiancoding.com/sketch)</description>
    <defs></defs>
    <g id="Page 1" stroke="none" stroke-width="1" fill="none" fill-rule="evenodd">
        <g id="Layer_1" transform="translate(0.000000, -1.000000)" fill="#A21E1D">
            <path d="M33.312,51 C24.109,51 16.65,58.459 16.65,67.662 C16.65,80.004 9.949,90.758 0,96.52 C4.944,99.389 10.607,101 16.662,101 C35.07,101 50,86.07 50,67.662 C49.988,58.459 42.518,51 33.312,51 Z M33.312,51" id="Shape"></path>
            <path d="M96.338,4.662 C91.455,-0.221 83.545,-0.221 78.662,4.662 L43.029,40.282 C51.281,43.224 57.775,49.719 60.705,57.97 L96.338,22.337 C101.221,17.455 101.221,9.545 96.338,4.662 L96.338,4.662 Z M96.338,4.662" id="Shape"></path>
        </g>
    </g>
</svg>