<?xml version="1.0" encoding="UTF-8" standalone="no"?>
<svg width="101px" height="88px" viewBox="0 0 101 88" version="1.1" xmlns="http://www.w3.org/2000/svg" xmlns:xlink="http://www.w3.org/1999/xlink" xmlns:sketch="http://www.bohemiancoding.com/sketch/ns">
    <title>gears</title>
    <description>Created with Sketch (http://www.bohemiancoding.com/sketch)</description>
    <defs></defs>
    <g id="Page 1" stroke="none" stroke-width="1" fill="none" fill-rule="evenodd">
        <g id="Layer_1" fill="#AE2221">
            <path d="M100.777,65.593 L93.861,61.533 C94.09,58.747 93.75,56.028 92.939,53.506 L98.736,47.981 L94.732,41.651 L87.258,44.522 C85.306,42.701 82.98,41.23 80.4,40.254 C80.398,40.254 80.397,40.253 80.396,40.252 L79.688,32.266 L72.244,31.45 L69.826,39.091 C67.094,39.487 64.514,40.42 62.21,41.781 C62.21,41.782 62.208,41.782 62.208,41.783 L55.526,37.359 L50.245,42.672 L54.709,49.323 C53.371,51.617 52.462,54.183 52.077,56.959 L44.44,59.427 L45.302,66.864 L53.283,67.522 L53.283,67.525 C54.271,70.063 55.742,72.389 57.608,74.354 L54.782,81.852 L61.136,85.815 L66.634,79.976 C67.907,80.38 69.224,80.656 70.606,80.81 C71.977,80.964 73.337,80.974 74.665,80.866 L78.762,87.746 L85.824,85.253 L84.689,77.326 C86.925,75.809 88.877,73.858 90.39,71.589 L90.39,71.588 L98.322,72.675 L100.777,65.593 L100.777,65.593 Z M72.223,66.007 L68.842,65.854 L67.218,62.89 L65.241,60.146 L66.537,57.027 L67.448,53.766 L70.697,52.833 L73.816,51.515 L76.571,53.481 L79.548,55.084 L79.721,58.465 L80.326,61.792 L77.789,64.042 L75.561,66.588 L72.223,66.007 L72.223,66.007 Z M72.223,66.007" id="Shape"></path>
            <path d="M45.768,17.079 L40.863,18.836 L41.574,23.65 L46.776,23.913 L46.776,23.914 C47.467,25.549 48.477,27.02 49.717,28.259 L48.032,33.186 L52.238,35.632 L55.691,31.73 L55.692,31.73 C56.529,31.973 57.395,32.125 58.284,32.191 C59.183,32.258 60.052,32.248 60.918,32.136 L60.923,32.136 L63.727,36.526 L68.262,34.763 L67.366,29.644 C68.792,28.613 70.009,27.307 70.955,25.803 C70.956,25.802 70.956,25.8 70.957,25.8 L76.124,26.343 L77.572,21.698 L72.997,19.2 L72.997,19.195 C73.085,17.372 72.81,15.627 72.239,14.014 C72.238,14.012 72.238,14.01 72.237,14.008 L75.889,10.303 L73.16,6.274 L68.36,8.293 C67.046,7.143 65.521,6.231 63.822,5.651 L63.201,0.485 L58.351,0.106 L56.934,5.12 C55.167,5.427 53.507,6.087 52.036,7.009 C52.034,7.01 52.031,7.012 52.029,7.013 L47.612,4.282 L44.291,7.839 L47.326,12.069 L47.326,12.07 C46.503,13.582 45.955,15.269 45.768,17.079 L45.768,17.079 Z M55.166,16.833 L55.684,14.692 L57.781,14.022 L59.779,13.1 L61.601,14.319 L63.566,15.306 L63.753,17.491 L64.214,19.643 L62.611,21.158 L61.215,22.849 L59.043,22.541 L56.848,22.51 L55.726,20.62 L54.384,18.875 L55.166,16.833 L55.166,16.833 Z M55.166,16.833" id="Shape"></path>
            <path d="M46.513,53.497 L48.384,47.468 L42.453,44.241 L42.453,44.233 C42.557,41.88 42.201,39.606 41.453,37.505 L46.183,32.694 L42.638,27.473 L36.417,30.1 C34.717,28.61 32.729,27.434 30.527,26.679 L29.715,19.983 L23.423,19.5 L21.601,25.991 C21.599,25.992 21.597,25.992 21.596,25.992 C19.302,26.403 17.158,27.261 15.255,28.474 L9.51,24.933 L5.207,29.549 L9.146,35.027 C8.091,36.99 7.383,39.178 7.137,41.53 L0.777,43.816 L1.707,50.058 L8.445,50.392 C8.446,50.392 8.446,50.394 8.447,50.396 C9.348,52.508 10.653,54.413 12.279,56.014 L12.279,56.014 L10.101,62.416 L15.562,65.581 L20.02,60.524 C21.102,60.82 22.227,61.015 23.392,61.112 C24.558,61.197 25.7,61.173 26.817,61.048 L26.822,61.048 L30.457,66.724 L36.334,64.427 L35.159,57.781 C37.007,56.433 38.584,54.755 39.804,52.799 C39.804,52.799 39.804,52.797 39.805,52.797 L46.513,53.497 L46.513,53.497 Z M24.352,48.596 L21.507,48.558 L20.049,46.108 L18.309,43.851 L19.318,41.194 L19.994,38.424 L22.709,37.552 L25.296,36.354 L27.669,37.929 L30.21,39.204 L30.459,42.041 L31.057,44.829 L28.98,46.795 L27.171,48.998 L24.352,48.596 L24.352,48.596 Z M24.352,48.596" id="Shape"></path>
        </g>
    </g>
</svg>