<?xml version="1.0" encoding="UTF-8" standalone="no"?>
<svg width="100px" height="100px" viewBox="0 0 100 100" version="1.1" xmlns="http://www.w3.org/2000/svg" xmlns:xlink="http://www.w3.org/1999/xlink" xmlns:sketch="http://www.bohemiancoding.com/sketch/ns">
    <title>research</title>
    <description>Created with Sketch (http://www.bohemiancoding.com/sketch)</description>
    <defs></defs>
    <g id="Page-1" stroke="none" stroke-width="1" fill="none" fill-rule="evenodd" sketch:type="MSPage">
        <g id="research3" sketch:type="MSLayerGroup" transform="translate(1.000000, 0.000000)" fill="#AE2221">
            <g id="Page-1" sketch:type="MSShapeGroup">
                <g id="research">
                    <g id="Group">
                        <path d="M70.625,0 L44,0 L49,8 L66,8 L66,33 L91,33 L91,92 L30,92 L30,43.144 L22,42.275 L22,100 L99,100 L99,29.474 L70.625,0 L70.625,0 Z M72,27 L72,13.38 L85.163,27 L72,27 L72,27 Z" id="Shape"></path>
                        <rect id="Rectangle" x="38" y="48" width="44" height="4"></rect>
                        <rect id="Rectangle" x="38" y="62" width="44" height="4"></rect>
                        <rect id="Rectangle" x="38" y="76" width="44" height="4"></rect>
                        <path d="M41.904,31.49 C45.18,28.034 46.706,23.532 46.586,18.991 C46.338,9.602 38.143,1.831 28.75,2.08 C19.282,2.33 11.507,10.366 11.758,19.839 C11.866,23.908 13.377,27.938 16.205,31.153 L8.39,34.569 L0.544,42.925 C-0.062,43.721 -0.346,44.747 -0.319,45.765 C-0.253,48.267 1.92,50.482 4.502,50.414 C5.519,50.387 6.45,50.051 7.294,49.402 L15.218,41.05 L18.224,33.135 C21.583,35.787 25.611,37.09 29.677,36.983 C34.14,36.865 38.555,35.025 41.904,31.49 L41.904,31.49 L41.904,31.49 Z M21.827,27.321 C19.658,25.267 18.568,22.552 18.493,19.735 C18.342,14.023 23.064,8.963 28.93,8.809 C34.647,8.658 39.704,13.381 39.858,19.169 C40.015,25.119 35.292,30.101 29.497,30.254 C26.761,30.327 23.993,29.302 21.827,27.321 L21.827,27.321 L21.827,27.321 Z" id="Shape"></path>
                    </g>
                </g>
            </g>
        </g>
    </g>
</svg>