<svg xmlns="http://www.w3.org/2000/svg" width="100" height="100" viewBox="0 0 100 100"><path d="M26.888 28.144l-13.257 4.396c-1.11.367-1.561 2.013-1.01 3.674.553 1.662 1.897 2.71 3.005 2.342l13.252-4.394c-.706-.772-1.272-1.725-1.63-2.797-.36-1.089-.465-2.187-.36-3.221zM52.709 17.357l-21.672 7.184.003.004-.025.005c-2.216.737-3.269 3.577-2.351 6.345.917 2.768 3.459 4.416 5.674 3.685l.023-.011 21.667-7.185c-1.123-1.188-2.086-2.784-2.711-4.664-.608-1.838-.801-3.704-.608-5.363zM78.797 14.273c-1.285-3.879-.531-7.615 1.68-8.349l-24.061 7.977c-2.215.734-2.969 4.475-1.684 8.349 1.285 3.879 4.123 6.424 6.338 5.688l24.062-7.98c-2.216.735-5.052-1.811-6.335-5.685zM86.873 11.287c-1.146-3.429-3.51-4.29-4.73-4.29-.113 0-.221.017-.324.05-.645.216-1.104 1.169-1.23 2.486.082-.074.148-.163.252-.215.34-.159.734-.127 1.041.085.836.572 1.477 1.509 1.898 2.776.529 1.575.4 2.864.201 3.666-.098.385-.406.681-.789.766l-.229.026-.264-.061c.863 1.098 1.803 1.73 2.514 1.73.113 0 .221-.018.322-.051.098-.034.191-.087.283-.152.897-.657 2.203-3.392 1.055-6.816zM20.568 92.41c-.347 0-.701-.079-1.032-.247-1.116-.569-1.562-1.942-.992-3.058l26.428-51.868h9.847l6.699 52.609c.162 1.25-.721 2.387-1.965 2.549-1.264.15-2.387-.729-2.545-1.974l-6.195-48.635h-3.054l-25.162 49.382c-.403.79-1.202 1.242-2.029 1.242zM78.611 92.41c-.914 0-1.777-.554-2.127-1.464l-19.345-50.623c-.449-1.173.139-2.488 1.312-2.936 1.178-.449 2.49.14 2.938 1.312l19.346 50.623c.449 1.174-.137 2.487-1.311 2.938-.268.104-.541.15-.813.15z"/></svg>